<svg width="512" height="512" viewBox="0 0 512 512" fill="none" xmlns="http://www.w3.org/2000/svg">
  <rect width="512" height="512" rx="112" fill="#14532D"/>
  <path d="M124 178C124 153.699 143.699 134 168 134H332C356.301 134 376 153.699 376 178V190H164C142.461 190 124.86 207.033 124 228.361V178Z" fill="#86EFAC"/>
  <path d="M108 230C108 207.909 125.909 190 148 190H376C398.091 190 416 207.909 416 230V338C416 360.091 398.091 378 376 378H148C125.909 378 108 360.091 108 338V230Z" fill="#F8FAFC"/>
  <path d="M148 218H376C382.627 218 388 223.373 388 230V338C388 344.627 382.627 350 376 350H148C141.373 350 136 344.627 136 338V230C136 223.373 141.373 218 148 218Z" fill="#22C55E"/>
  <path d="M296 262C296 249.85 305.85 240 318 240H416V328H318C305.85 328 296 318.15 296 306V262Z" fill="#0F172A"/>
  <circle cx="332" cy="284" r="14" fill="#FDE68A"/>
  <path d="M164 258H246" stroke="#DCFCE7" stroke-width="20" stroke-linecap="round"/>
  <path d="M164 304H226" stroke="#BBF7D0" stroke-width="20" stroke-linecap="round"/>
</svg>
